<?xml version="1.0" encoding="UTF-8" standalone="no"?>
<!-- Created with Inkscape (http://www.inkscape.org/) -->

<svg
   width="118.63617mm"
   height="109.12096mm"
   viewBox="0 0 118.63617 109.12096"
   version="1.1"
   id="svg1"
   xmlns="http://www.w3.org/2000/svg">
  <defs
     id="defs1" />
  <g
     id="layer1"
     transform="translate(-193.28072,-93.939522)">
    <g
       id="g183">
      <path
         id="rect1-5"
         style="fill:#f3f3f3;fill-opacity:1;stroke:#000000;stroke-width:3.63694;stroke-linecap:round;stroke-opacity:1"
         d="m 199.64796,95.757992 h 92.49507 c 9.94729,0 17.95539,23.522938 17.95539,52.742008 0,29.21907 -8.0081,52.74201 -17.95539,52.74201 h -92.49507 c -9.94729,0 -0.43753,-23.52294 -0.43753,-52.74201 0,-29.21907 -9.50976,-52.742008 0.43753,-52.742008 z" />
      <path
         style="fill:#4b4b4b;fill-opacity:1;stroke:#000000;stroke-width:4;stroke-linecap:round;stroke-opacity:1"
         id="path2-3"
         d="m -97.675576,73.08247 c -5.502484,9.735145 -154.065014,11.094003 -159.744654,1.461138 -5.67964,-9.632865 67.42482,-138.971215 78.60695,-139.073495 11.18212,-0.10228 86.64019,127.877212 81.137704,137.612357 z"
         transform="matrix(0.29478264,-0.10881019,0.17019283,0.18846477,277.06768,123.82581)" />
      <path
         style="fill:#4b4b4b;fill-opacity:1;stroke:#000000;stroke-width:4;stroke-linecap:round;stroke-opacity:1"
         id="path2-3-9"
         d="m -97.675576,73.08247 c -5.502484,9.735145 -154.065014,11.094003 -159.744654,1.461138 -5.67964,-9.632865 67.42482,-138.971215 78.60695,-139.073495 11.18212,-0.10228 86.64019,127.877212 81.137704,137.612357 z"
         transform="matrix(0.29478264,-0.10881019,0.17019283,0.18846477,311.83779,123.82581)" />
    </g>
  </g>
</svg>
