<?xml version="1.0" encoding="UTF-8" standalone="no"?>
<!-- Created with Inkscape (http://www.inkscape.org/) -->

<svg
   width="118.63608mm"
   height="109.12096mm"
   viewBox="0 0 118.63608 109.12096"
   version="1.1"
   id="svg1"
   xmlns="http://www.w3.org/2000/svg">
  <defs
     id="defs1" />
  <g
     id="layer1"
     transform="translate(101.66091,-93.939518)">
    <g
       id="g181"
       style="display:inline">
      <path
         id="rect1-5-0"
         style="fill:#f3f3f3;fill-opacity:1;stroke:#000000;stroke-width:3.63694;stroke-linecap:round;stroke-opacity:1"
         d="m 10.607924,201.24201 h -92.495062 c -9.94725,0 -17.955305,-23.52294 -17.955305,-52.74201 0,-29.21907 8.008055,-52.742012 17.955305,-52.742012 h 92.495062 c 9.947296,0 0.43753,23.522942 0.43753,52.742012 0,29.21907 9.509766,52.74201 -0.43753,52.74201 z" />
      <path
         style="fill:#4b4b4b;fill-opacity:1;stroke:#000000;stroke-width:4;stroke-linecap:round;stroke-opacity:1"
         id="path2-3-6"
         d="m -97.675576,73.08247 c -5.502484,9.735145 -154.065014,11.094003 -159.744654,1.461138 -5.67964,-9.632865 67.42482,-138.971215 78.60695,-139.073495 11.18212,-0.10228 86.64019,127.877212 81.137704,137.612357 z"
         transform="matrix(-0.29478264,0.10881019,-0.17019283,-0.18846477,-66.811788,173.17419)" />
      <path
         style="fill:#4b4b4b;fill-opacity:1;stroke:#000000;stroke-width:4;stroke-linecap:round;stroke-opacity:1"
         id="path2-3-9-2"
         d="m -97.675576,73.08247 c -5.502484,9.735145 -154.065014,11.094003 -159.744654,1.461138 -5.67964,-9.632865 67.42482,-138.971215 78.60695,-139.073495 11.18212,-0.10228 86.64019,127.877212 81.137704,137.612357 z"
         transform="matrix(-0.29478264,0.10881019,-0.17019283,-0.18846477,-101.58181,173.17419)" />
    </g>
  </g>
</svg>
