<?xml version="1.0" encoding="UTF-8" standalone="no"?>
<!-- Created with Inkscape (http://www.inkscape.org/) -->

<svg
   width="512"
   height="512"
   viewBox="0 0 512 512"
   version="1.1"
   id="svg1"
   xmlns="http://www.w3.org/2000/svg"
   xmlns:svg="http://www.w3.org/2000/svg">
  <defs
     id="defs1" />
  <path
     d="M 49.289621,120.34988 C 22.638285,139.92375 23.721416,240.30788 23.473539,256 23.721416,271.69211 22.638285,372.07624 49.289621,391.65012 77.706966,391.26301 132.49376,368.7686 178.53797,344.26035 240.69933,311.17331 285.35199,266.15342 285.14,256 285.35199,245.84657 240.69933,200.8267 178.53797,167.73965 132.49376,143.23139 77.706966,120.73698 49.289621,120.34988 Z"
     style="fill:#ffeeaa;stroke:#000000;stroke-width:23.9999;stroke-linecap:round;stroke-linejoin:round;stroke-dasharray:none"
     id="path1" />
  <path
     d="m 252.67324,120.34988 c -26.65133,19.57387 -25.5682,119.958 -25.81609,135.65012 0.24789,15.69211 -0.83524,116.07624 25.81609,135.65012 28.41733,-0.38711 83.20415,-22.88152 129.24836,-47.38977 C 444.08296,311.17331 488.73561,266.15342 488.52363,256 488.73561,245.84657 444.08296,200.8267 381.9216,167.73965 335.87739,143.23139 281.09057,120.73698 252.67324,120.34988 Z"
     style="fill:#ffeeaa;stroke:#000000;stroke-width:23.9999;stroke-linecap:round;stroke-linejoin:round;stroke-dasharray:none"
     id="path1-5" />
</svg>
