<?xml version="1.0" encoding="UTF-8" standalone="no"?>
<!-- Created with Inkscape (http://www.inkscape.org/) -->

<svg
   width="73.256844mm"
   height="31.02574mm"
   viewBox="0 0 73.256844 31.02574"
   version="1.1"
   id="svg1"
   xmlns="http://www.w3.org/2000/svg"
   xmlns:svg="http://www.w3.org/2000/svg">
  <defs
     id="defs1" />
  <g
     id="layer1"
     transform="translate(85.429257,-144.16959)">
    <g
       id="g11"
       transform="matrix(0.83294641,0,0,0.83294641,-259.79464,35.989649)"
       style="stroke-width:2.88134;stroke-dasharray:none">
      <path
         style="fill:#4b4b4b;fill-opacity:1;stroke:#000000;stroke-width:10.5867;stroke-linecap:round;stroke-dasharray:none;stroke-opacity:1"
         id="path2-3"
         d="m -97.675576,73.08247 c -5.502484,9.735145 -154.065014,11.094003 -159.744654,1.461138 -5.67964,-9.632865 67.42482,-138.971215 78.60695,-139.073495 11.18212,-0.10228 86.64019,127.877212 81.137704,137.612357 z"
         transform="matrix(0.29478264,-0.10881019,0.17019283,0.18846477,277.06768,123.82581)" />
      <path
         style="fill:#4b4b4b;fill-opacity:1;stroke:#000000;stroke-width:10.5867;stroke-linecap:round;stroke-dasharray:none;stroke-opacity:1"
         id="path2-3-9"
         d="m -97.675576,73.08247 c -5.502484,9.735145 -154.065014,11.094003 -159.744654,1.461138 -5.67964,-9.632865 67.42482,-138.971215 78.60695,-139.073495 11.18212,-0.10228 86.64019,127.877212 81.137704,137.612357 z"
         transform="matrix(0.29478264,-0.10881019,0.17019283,0.18846476,311.83779,123.82581)" />
    </g>
  </g>
</svg>
