<?xml version="1.0" encoding="UTF-8" standalone="no"?>
<!-- Created with Inkscape (http://www.inkscape.org/) -->

<svg
   width="512"
   height="512"
   viewBox="0 0 512 512"
   version="1.1"
   id="svg1"
   xmlns="http://www.w3.org/2000/svg"
   xmlns:svg="http://www.w3.org/2000/svg">
  <defs
     id="defs1" />
  <g
     id="layer1">
    <path
       id="rect43"
       style="fill:#cdde87;stroke:#000000;stroke-width:24;stroke-linecap:round;stroke-linejoin:round;stroke-dasharray:none;stroke-opacity:1;paint-order:normal"
       d="M 140 12 C 69.088 12 12 69.088 12 140 L 12 372 C 12 442.912 69.088 500 140 500 L 372 500 C 442.912 500 500 442.912 500 372 L 500 140 C 500 69.088 442.912 12 372 12 L 140 12 z M 255.87891 62.425781 C 255.9198 62.425781 255.9601 62.438741 256 62.462891 C 256.03989 62.438741 256.08019 62.425781 256.12109 62.425781 C 262.56924 62.425781 297.98267 88.837977 301.375 91.255859 C 442.60519 191.91771 451.22558 201.30909 458.06836 205.6543 C 466.55874 211.04574 479.47672 219.24655 467.04297 232.85156 C 460.07654 238.2556 447.15908 232.71987 436.96484 225.99023 C 436.98004 277.17138 436.77539 446.68164 436.77539 446.68164 L 286.10352 446.68164 C 286.10352 446.68164 285.62961 446.72602 286.10352 364.87891 C 264.88998 364.94941 257.98378 364.94112 256 364.91992 C 254.01622 364.94112 247.11002 364.94941 225.89648 364.87891 C 226.37039 446.72604 225.89648 446.68164 225.89648 446.68164 L 75.224609 446.68164 C 75.224609 446.68164 75.019956 277.17138 75.035156 225.99023 C 64.840916 232.71987 51.923461 238.2556 44.957031 232.85156 C 32.523281 219.24655 45.441261 211.04574 53.931641 205.6543 C 60.774421 201.30909 69.394815 191.91771 210.625 91.255859 C 214.01733 88.837977 249.43076 62.425781 255.87891 62.425781 z " />
  </g>
</svg>
