<?xml version="1.0" encoding="UTF-8" standalone="no"?>
<!-- Created with Inkscape (http://www.inkscape.org/) -->

<svg
   width="512"
   height="512"
   viewBox="0 0 512 512"
   version="1.1"
   id="svg1"
   xmlns="http://www.w3.org/2000/svg"
   xmlns:svg="http://www.w3.org/2000/svg">
  <defs
     id="defs1" />
  <path
     style="fill:none;stroke:#000000;stroke-width:24;stroke-linecap:round;stroke-linejoin:round"
     d="M 55.116157,259.21602 C 92.79577,200.61645 184.77537,161.1967 254.05511,160.99743 323.33488,160.79815 414.97525,215.81117 452.53252,257.73905 397.77471,326.9909 323.79646,355.61404 254.5167,355.95764 185.23695,356.30124 68.671542,284.6751 55.116157,259.21602 Z"
     id="path4" />
  <ellipse
     style="fill:#000000;stroke:#504416;stroke-width:24;stroke-linecap:round;stroke-linejoin:round"
     id="path5"
     cx="251.08791"
     cy="257.36978"
     rx="58.690502"
     ry="56.494164" />
  <path
     style="fill:none;stroke:#66ff00;stroke-width:64;stroke-linecap:round;stroke-linejoin:round;stroke-dasharray:none;stroke-opacity:1"
     d="m 85.57507,362.12276 c 0,0 30.69612,23.34555 44.23796,36.98584 14.19625,14.29944 38.43626,46.65534 38.43626,46.65534 0,0 63.49358,-54.34935 96.45326,-80.01512 30.34772,-23.63181 60.97308,-47.0365 93.18981,-68.0491 34.1266,-22.25827 105.76015,-61.28045 105.76015,-61.28045"
     id="path6" />
</svg>
